<?xml version="1.0"?>
<svg xmlns:rdf="http://www.w3.org/1999/02/22-rdf-syntax-ns#" xmlns="http://www.w3.org/2000/svg" xmlns:cc="http://creativecommons.org/ns#" xmlns:xlink="http://www.w3.org/1999/xlink" xmlns:dc="http://purl.org/dc/elements/1.1/" xmlns:svg="http://www.w3.org/2000/svg" id="svg2" viewBox="0 0 463.64 296.81" version="1.1">
  <defs id="defs4">
    <linearGradient id="linearGradient3050">
      <stop id="stop3052" offset="0"/>
      <stop id="stop3054" stop-opacity="0" offset="1"/>
    </linearGradient>
    <linearGradient id="linearGradient3030" y2="659.6" gradientUnits="userSpaceOnUse" x2="240.95" gradientTransform="translate(0,28)" y1="791.92" x1="240.95">
      <stop id="stop3013" stop-color="#f00" offset="0"/>
      <stop id="stop3015" stop-color="#f00" stop-opacity="0" offset="1"/>
    </linearGradient>
    <linearGradient id="linearGradient3039" y2="202.21" gradientUnits="userSpaceOnUse" x2="270.19" y1="117.86" x1="270.19">
      <stop id="stop3035" stop-color="#008080" offset="0"/>
      <stop id="stop3037" stop-color="#008080" stop-opacity="0" offset="1"/>
    </linearGradient>
    <linearGradient id="linearGradient3048" y2="872.7" gradientUnits="userSpaceOnUse" x2="129.53" y1="762.67" x1="37.604">
      <stop id="stop3044" stop-color="#ff0" offset="0"/>
      <stop id="stop3046" stop-color="#ff0" stop-opacity="0" offset="1"/>
    </linearGradient>
    <linearGradient id="linearGradient3056" y2="815.59" xlink:href="#linearGradient3050" gradientUnits="userSpaceOnUse" x2="137.88" y1="896.37" x1="139.28"/>
    <linearGradient id="linearGradient3058" y2="759.88" xlink:href="#linearGradient3050" gradientUnits="userSpaceOnUse" x2="139.28" y1="893.59" x1="139.28"/>
    <linearGradient id="linearGradient3064" y2="759.88" xlink:href="#linearGradient3050" gradientUnits="userSpaceOnUse" x2="139.28" gradientTransform="translate(256)" y1="893.59" x1="139.28"/>
    <linearGradient id="linearGradient3066" y2="815.59" xlink:href="#linearGradient3050" gradientUnits="userSpaceOnUse" x2="137.88" gradientTransform="translate(256)" y1="896.37" x1="139.28"/>
  </defs>
  <g id="layer1" transform="translate(-18.106 -648.46)">
    <path id="rect3001" fill="url(#linearGradient3030)" d="m60.688 736.67c-23.148 0-41.781 18.634-41.781 41.781v87.844c0 23.148 18.634 41.781 41.781 41.781h16.656c-0.48483-3.0871-0.75-6.2455-0.75-9.4688 0-33.46 27.134-60.594 60.594-60.594s60.594 27.134 60.594 60.594c0 3.2232-0.26517 6.3817-0.75 9.4688h136.31c-0.48483-3.0871-0.75-6.2455-0.75-9.4688 0-33.46 27.134-60.594 60.594-60.594s60.594 27.134 60.594 60.594c0 2.469-0.18172 4.8896-0.46875 7.2812 16.559-5.5464 28.438-21.12 28.438-39.594v-87.844c0-23.148-18.634-41.781-41.781-41.781h-379.28z"/>
    <path id="path3033" fill="url(#linearGradient3030)" d="m60.688 736.67c-23.148 0-41.781 18.634-41.781 41.781v87.844c0 23.148 18.634 41.781 41.781 41.781h16.656c-0.48483-3.0871-0.75-6.2455-0.75-9.4688 0-33.46 27.134-60.594 60.594-60.594s60.594 27.134 60.594 60.594c0 3.2232-0.26517 6.3817-0.75 9.4688h136.31c-0.48483-3.0871-0.75-6.2455-0.75-9.4688 0-33.46 27.134-60.594 60.594-60.594s60.594 27.134 60.594 60.594c0 2.469-0.18172 4.8896-0.46875 7.2812 16.559-5.5464 28.438-21.12 28.438-39.594v-87.844c0-23.148-18.634-41.781-41.781-41.781h-379.28z"/>
    <path id="path3035" fill="url(#linearGradient3058)" d="m137.88 844.99c-27.691 0-50.125 22.434-50.125 50.125s22.434 50.156 50.125 50.156 50.156-22.465 50.156-50.156-22.465-50.125-50.156-50.125zm0 11.156c21.538 0 39 17.431 39 38.969s-17.462 39-39 39-39-17.462-39-39 17.462-38.969 39-38.969z"/>
    <path id="path3061" fill="url(#linearGradient3056)" d="m155.99 896.15c0 9.2304-7.4827 16.713-16.713 16.713-9.2304 0-16.713-7.4827-16.713-16.713 0-9.2304 7.4827-16.713 16.713-16.713 9.2304 0 16.713 7.4827 16.713 16.713"/>
    <path id="path3066" d="m67.861 769.78c0 12.307-11.138 22.284-24.878 22.284-13.739 0-24.878-9.9769-24.878-22.284s19.495-30.641 33.234-30.641 16.521 18.333 16.521 30.641z" fill="url(#linearGradient3048)"/>
    <path id="path3031" d="m405.29 94.708c0 29.23-62.044 52.925-138.58 52.925-76.535 0-138.58-23.695-138.58-52.925v-0.000003" fill="url(#linearGradient3039)" transform="matrix(1 0 0 -1.6842 38.997 897.11)"/>
    <path id="path3060" d="m393.88 844.99c-27.691 0-50.125 22.434-50.125 50.125s22.434 50.156 50.125 50.156 50.156-22.465 50.156-50.156-22.465-50.125-50.156-50.125zm0 11.156c21.538 0 39 17.431 39 38.969s-17.462 39-39 39-39-17.462-39-39 17.462-38.969 39-38.969z" fill="url(#linearGradient3064)"/>
    <path id="path3062" d="m411.99 896.15c0 9.2304-7.4827 16.713-16.713 16.713-9.2304 0-16.713-7.4827-16.713-16.713 0-9.2304 7.4827-16.713 16.713-16.713 9.2304 0 16.713 7.4827 16.713 16.713" fill="url(#linearGradient3066)"/>
  </g>
  <metadata>
    <rdf:RDF>
      <cc:Work>
        <dc:format>image/svg+xml</dc:format>
        <dc:type rdf:resource="http://purl.org/dc/dcmitype/StillImage"/>
        <cc:license rdf:resource="http://creativecommons.org/licenses/publicdomain/"/>
        <dc:publisher>
          <cc:Agent rdf:about="http://openclipart.org/">
            <dc:title>Openclipart</dc:title>
          </cc:Agent>
        </dc:publisher>
        <dc:title>Car</dc:title>
        <dc:date>2011-05-07T16:15:45</dc:date>
        <dc:description>a simple car made by me</dc:description>
        <dc:source>http://openclipart.org/detail/137113/car-by-haidarx</dc:source>
        <dc:creator>
          <cc:Agent>
            <dc:title>haidarx</dc:title>
          </cc:Agent>
        </dc:creator>
        <dc:subject>
          <rdf:Bag>
            <rdf:li>car</rdf:li>
            <rdf:li>clip art</rdf:li>
            <rdf:li>clipart</rdf:li>
            <rdf:li>vehicle</rdf:li>
          </rdf:Bag>
        </dc:subject>
      </cc:Work>
      <cc:License rdf:about="http://creativecommons.org/licenses/publicdomain/">
        <cc:permits rdf:resource="http://creativecommons.org/ns#Reproduction"/>
        <cc:permits rdf:resource="http://creativecommons.org/ns#Distribution"/>
        <cc:permits rdf:resource="http://creativecommons.org/ns#DerivativeWorks"/>
      </cc:License>
    </rdf:RDF>
  </metadata>
</svg>
